<?xml version="1.0" encoding="UTF-8" standalone="no"?>
<!DOCTYPE svg PUBLIC "-//W3C//DTD SVG 1.1//EN"
 "http://www.w3.org/Graphics/SVG/1.1/DTD/svg11.dtd">
<!-- Generated by graphviz version 2.42.3 (20191010.1750)
 -->
<!-- Title: snakemake_dag Pages: 1 -->
<svg width="537pt" height="764pt"
 viewBox="0.00 0.00 537.00 764.00" xmlns="http://www.w3.org/2000/svg" xmlns:xlink="http://www.w3.org/1999/xlink">
<g id="graph0" class="graph" transform="scale(1 1) rotate(0) translate(4 760)">
<title>snakemake_dag</title>
<polygon fill="white" stroke="transparent" points="-4,4 -4,-760 533,-760 533,4 -4,4"/>
<!-- 0 -->
<g id="node1" class="node">
<title>0</title>
<path fill="none" stroke="#59d856" stroke-width="2" d="M339.5,-36C339.5,-36 280.5,-36 280.5,-36 274.5,-36 268.5,-30 268.5,-24 268.5,-24 268.5,-12 268.5,-12 268.5,-6 274.5,0 280.5,0 280.5,0 339.5,0 339.5,0 345.5,0 351.5,-6 351.5,-12 351.5,-12 351.5,-24 351.5,-24 351.5,-30 345.5,-36 339.5,-36"/>
<text text-anchor="middle" x="310" y="-15.5" font-family="sans" font-size="10.00">scAmpi_basic</text>
</g>
<!-- 1 -->
<g id="node2" class="node">
<title>1</title>
<path fill="none" stroke="#bed856" stroke-width="2" d="M102,-108C102,-108 12,-108 12,-108 6,-108 0,-102 0,-96 0,-96 0,-84 0,-84 0,-78 6,-72 12,-72 12,-72 102,-72 102,-72 108,-72 114,-78 114,-84 114,-84 114,-96 114,-96 114,-102 108,-108 102,-108"/>
<text text-anchor="middle" x="57" y="-87.5" font-family="sans" font-size="10.00">cellPercentInCluster</text>
</g>
<!-- 1&#45;&gt;0 -->
<g id="edge1" class="edge">
<title>1&#45;&gt;0</title>
<path fill="none" stroke="grey" stroke-width="2" d="M114.09,-73.2C157.54,-61.18 216.8,-44.79 258.74,-33.18"/>
<polygon fill="grey" stroke="grey" stroke-width="2" points="259.77,-36.53 268.48,-30.49 257.9,-29.78 259.77,-36.53"/>
</g>
<!-- 2 -->
<g id="node3" class="node">
<title>2</title>
<path fill="none" stroke="#d8bc56" stroke-width="2" d="M309,-180C309,-180 235,-180 235,-180 229,-180 223,-174 223,-168 223,-168 223,-156 223,-156 223,-150 229,-144 235,-144 235,-144 309,-144 309,-144 315,-144 321,-150 321,-156 321,-156 321,-168 321,-168 321,-174 315,-180 309,-180"/>
<text text-anchor="middle" x="272" y="-159.5" font-family="sans" font-size="10.00">remove_atypical</text>
</g>
<!-- 2&#45;&gt;1 -->
<g id="edge7" class="edge">
<title>2&#45;&gt;1</title>
<path fill="none" stroke="grey" stroke-width="2" d="M222.94,-145.03C192.04,-134.97 151.87,-121.89 118.79,-111.12"/>
<polygon fill="grey" stroke="grey" stroke-width="2" points="119.81,-107.77 109.22,-108 117.65,-114.43 119.81,-107.77"/>
</g>
<!-- 11 -->
<g id="node12" class="node">
<title>11</title>
<path fill="none" stroke="#d86e56" stroke-width="2" d="M210,-108C210,-108 144,-108 144,-108 138,-108 132,-102 132,-96 132,-96 132,-84 132,-84 132,-78 138,-72 144,-72 144,-72 210,-72 210,-72 216,-72 222,-78 222,-84 222,-84 222,-96 222,-96 222,-102 216,-108 210,-108"/>
<text text-anchor="middle" x="177" y="-87.5" font-family="sans" font-size="10.00">diff_exp_genes</text>
</g>
<!-- 2&#45;&gt;11 -->
<g id="edge18" class="edge">
<title>2&#45;&gt;11</title>
<path fill="none" stroke="grey" stroke-width="2" d="M248.52,-143.7C236.44,-134.8 221.55,-123.82 208.48,-114.2"/>
<polygon fill="grey" stroke="grey" stroke-width="2" points="210.34,-111.22 200.21,-108.1 206.19,-116.85 210.34,-111.22"/>
</g>
<!-- 12 -->
<g id="node13" class="node">
<title>12</title>
<path fill="none" stroke="#d6d856" stroke-width="2" d="M292,-108C292,-108 252,-108 252,-108 246,-108 240,-102 240,-96 240,-96 240,-84 240,-84 240,-78 246,-72 252,-72 252,-72 292,-72 292,-72 298,-72 304,-78 304,-84 304,-84 304,-96 304,-96 304,-102 298,-108 292,-108"/>
<text text-anchor="middle" x="272" y="-87.5" font-family="sans" font-size="10.00">gene_exp</text>
</g>
<!-- 2&#45;&gt;12 -->
<g id="edge19" class="edge">
<title>2&#45;&gt;12</title>
<path fill="none" stroke="grey" stroke-width="2" d="M272,-143.7C272,-135.98 272,-126.71 272,-118.11"/>
<polygon fill="grey" stroke="grey" stroke-width="2" points="275.5,-118.1 272,-108.1 268.5,-118.1 275.5,-118.1"/>
</g>
<!-- 14 -->
<g id="node15" class="node">
<title>14</title>
<path fill="none" stroke="#568ad8" stroke-width="2" d="M364,-108C364,-108 334,-108 334,-108 328,-108 322,-102 322,-96 322,-96 322,-84 322,-84 322,-78 328,-72 334,-72 334,-72 364,-72 364,-72 370,-72 376,-78 376,-84 376,-84 376,-96 376,-96 376,-102 370,-108 364,-108"/>
<text text-anchor="middle" x="349" y="-87.5" font-family="sans" font-size="10.00">plotting</text>
</g>
<!-- 2&#45;&gt;14 -->
<g id="edge22" class="edge">
<title>2&#45;&gt;14</title>
<path fill="none" stroke="grey" stroke-width="2" d="M291.03,-143.7C300.54,-135.05 312.21,-124.45 322.57,-115.03"/>
<polygon fill="grey" stroke="grey" stroke-width="2" points="325.14,-117.42 330.19,-108.1 320.43,-112.24 325.14,-117.42"/>
</g>
<!-- 15 -->
<g id="node16" class="node">
<title>15</title>
<path fill="none" stroke="#d88d56" stroke-width="2" d="M436,-108C436,-108 406,-108 406,-108 400,-108 394,-102 394,-96 394,-96 394,-84 394,-84 394,-78 400,-72 406,-72 406,-72 436,-72 436,-72 442,-72 448,-78 448,-84 448,-84 448,-96 448,-96 448,-102 442,-108 436,-108"/>
<text text-anchor="middle" x="421" y="-87.5" font-family="sans" font-size="10.00">gsva</text>
</g>
<!-- 2&#45;&gt;15 -->
<g id="edge23" class="edge">
<title>2&#45;&gt;15</title>
<path fill="none" stroke="grey" stroke-width="2" d="M308.4,-143.96C328.56,-134.51 354.28,-122.45 384.72,-108.12"/>
<polygon fill="grey" stroke="grey" stroke-width="2" points="386.32,-111.24 393.88,-103.82 383.34,-104.91 386.32,-111.24"/>
</g>
<!-- 3 -->
<g id="node4" class="node">
<title>3</title>
<path fill="none" stroke="#d85656" stroke-width="2" d="M325,-252C325,-252 219,-252 219,-252 213,-252 207,-246 207,-240 207,-240 207,-228 207,-228 207,-222 213,-216 219,-216 219,-216 325,-216 325,-216 331,-216 337,-222 337,-228 337,-228 337,-240 337,-240 337,-246 331,-252 325,-252"/>
<text text-anchor="middle" x="272" y="-231.5" font-family="sans" font-size="10.00">cell_type_classification</text>
</g>
<!-- 3&#45;&gt;2 -->
<g id="edge8" class="edge">
<title>3&#45;&gt;2</title>
<path fill="none" stroke="grey" stroke-width="2" d="M272,-215.7C272,-207.98 272,-198.71 272,-190.11"/>
<polygon fill="grey" stroke="grey" stroke-width="2" points="275.5,-190.1 272,-180.1 268.5,-190.1 275.5,-190.1"/>
</g>
<!-- 4 -->
<g id="node5" class="node">
<title>4</title>
<path fill="none" stroke="#56d8a2" stroke-width="2" d="M313.5,-324C313.5,-324 230.5,-324 230.5,-324 224.5,-324 218.5,-318 218.5,-312 218.5,-312 218.5,-300 218.5,-300 218.5,-294 224.5,-288 230.5,-288 230.5,-288 313.5,-288 313.5,-288 319.5,-288 325.5,-294 325.5,-300 325.5,-300 325.5,-312 325.5,-312 325.5,-318 319.5,-324 313.5,-324"/>
<text text-anchor="middle" x="272" y="-303.5" font-family="sans" font-size="10.00">prepare_celltyping</text>
</g>
<!-- 4&#45;&gt;3 -->
<g id="edge9" class="edge">
<title>4&#45;&gt;3</title>
<path fill="none" stroke="grey" stroke-width="2" d="M272,-287.7C272,-279.98 272,-270.71 272,-262.11"/>
<polygon fill="grey" stroke="grey" stroke-width="2" points="275.5,-262.1 272,-252.1 268.5,-262.1 275.5,-262.1"/>
</g>
<!-- 5 -->
<g id="node6" class="node">
<title>5</title>
<path fill="none" stroke="#70d856" stroke-width="2" d="M393.5,-468C393.5,-468 268.5,-468 268.5,-468 262.5,-468 256.5,-462 256.5,-456 256.5,-456 256.5,-444 256.5,-444 256.5,-438 262.5,-432 268.5,-432 268.5,-432 393.5,-432 393.5,-432 399.5,-432 405.5,-438 405.5,-444 405.5,-444 405.5,-456 405.5,-456 405.5,-462 399.5,-468 393.5,-468"/>
<text text-anchor="middle" x="331" y="-447.5" font-family="sans" font-size="10.00">sctransform_preprocessing</text>
</g>
<!-- 5&#45;&gt;4 -->
<g id="edge11" class="edge">
<title>5&#45;&gt;4</title>
<path fill="none" stroke="grey" stroke-width="2" d="M313.38,-431.91C304.4,-422.21 294.12,-409.36 288,-396 279.07,-376.53 275.12,-352.53 273.37,-334.36"/>
<polygon fill="grey" stroke="grey" stroke-width="2" points="276.84,-333.84 272.56,-324.15 269.86,-334.4 276.84,-333.84"/>
</g>
<!-- 10 -->
<g id="node11" class="node">
<title>10</title>
<path fill="none" stroke="#56a2d8" stroke-width="2" d="M359,-396C359,-396 309,-396 309,-396 303,-396 297,-390 297,-384 297,-384 297,-372 297,-372 297,-366 303,-360 309,-360 309,-360 359,-360 359,-360 365,-360 371,-366 371,-372 371,-372 371,-384 371,-384 371,-390 365,-396 359,-396"/>
<text text-anchor="middle" x="334" y="-375.5" font-family="sans" font-size="10.00">phenograph</text>
</g>
<!-- 5&#45;&gt;10 -->
<g id="edge17" class="edge">
<title>5&#45;&gt;10</title>
<path fill="none" stroke="grey" stroke-width="2" d="M331.74,-431.7C332.07,-423.98 332.47,-414.71 332.84,-406.11"/>
<polygon fill="grey" stroke="grey" stroke-width="2" points="336.34,-406.25 333.27,-396.1 329.34,-405.95 336.34,-406.25"/>
</g>
<!-- 6 -->
<g id="node7" class="node">
<title>6</title>
<path fill="none" stroke="#56d8d8" stroke-width="2" d="M408.5,-540C408.5,-540 307.5,-540 307.5,-540 301.5,-540 295.5,-534 295.5,-528 295.5,-528 295.5,-516 295.5,-516 295.5,-510 301.5,-504 307.5,-504 307.5,-504 408.5,-504 408.5,-504 414.5,-504 420.5,-510 420.5,-516 420.5,-516 420.5,-528 420.5,-528 420.5,-534 414.5,-540 408.5,-540"/>
<text text-anchor="middle" x="358" y="-519.5" font-family="sans" font-size="10.00">filter_genes_and_cells</text>
</g>
<!-- 6&#45;&gt;5 -->
<g id="edge12" class="edge">
<title>6&#45;&gt;5</title>
<path fill="none" stroke="grey" stroke-width="2" d="M351.33,-503.7C348.29,-495.81 344.62,-486.3 341.24,-477.55"/>
<polygon fill="grey" stroke="grey" stroke-width="2" points="344.46,-476.17 337.6,-468.1 337.93,-478.69 344.46,-476.17"/>
</g>
<!-- 13 -->
<g id="node14" class="node">
<title>13</title>
<path fill="none" stroke="#88d856" stroke-width="2" d="M517,-468C517,-468 435,-468 435,-468 429,-468 423,-462 423,-456 423,-456 423,-444 423,-444 423,-438 429,-432 435,-432 435,-432 517,-432 517,-432 523,-432 529,-438 529,-444 529,-444 529,-456 529,-456 529,-462 523,-468 517,-468"/>
<text text-anchor="middle" x="476" y="-447.5" font-family="sans" font-size="10.00">generate_qc_plots</text>
</g>
<!-- 6&#45;&gt;13 -->
<g id="edge21" class="edge">
<title>6&#45;&gt;13</title>
<path fill="none" stroke="grey" stroke-width="2" d="M386.87,-503.88C402.29,-494.72 421.48,-483.34 438.1,-473.48"/>
<polygon fill="grey" stroke="grey" stroke-width="2" points="440.21,-476.3 447.02,-468.19 436.64,-470.28 440.21,-476.3"/>
</g>
<!-- 7 -->
<g id="node8" class="node">
<title>7</title>
<path fill="none" stroke="#56d873" stroke-width="2" d="M422,-684C422,-684 372,-684 372,-684 366,-684 360,-678 360,-672 360,-672 360,-660 360,-660 360,-654 366,-648 372,-648 372,-648 422,-648 422,-648 428,-648 434,-654 434,-660 434,-660 434,-672 434,-672 434,-678 428,-684 422,-684"/>
<text text-anchor="middle" x="397" y="-663.5" font-family="sans" font-size="10.00">create_hdf5</text>
</g>
<!-- 7&#45;&gt;6 -->
<g id="edge13" class="edge">
<title>7&#45;&gt;6</title>
<path fill="none" stroke="grey" stroke-width="2" d="M368.74,-647.97C356.57,-638.96 343.63,-626.7 337,-612 327.93,-591.88 334.9,-567.37 343.17,-549.17"/>
<polygon fill="grey" stroke="grey" stroke-width="2" points="346.39,-550.54 347.67,-540.03 340.11,-547.45 346.39,-550.54"/>
</g>
<!-- 9 -->
<g id="node10" class="node">
<title>9</title>
<path fill="none" stroke="#56c1d8" stroke-width="2" d="M435.5,-612C435.5,-612 358.5,-612 358.5,-612 352.5,-612 346.5,-606 346.5,-600 346.5,-600 346.5,-588 346.5,-588 346.5,-582 352.5,-576 358.5,-576 358.5,-576 435.5,-576 435.5,-576 441.5,-576 447.5,-582 447.5,-588 447.5,-588 447.5,-600 447.5,-600 447.5,-606 441.5,-612 435.5,-612"/>
<text text-anchor="middle" x="397" y="-591.5" font-family="sans" font-size="10.00">identify_doublets</text>
</g>
<!-- 7&#45;&gt;9 -->
<g id="edge16" class="edge">
<title>7&#45;&gt;9</title>
<path fill="none" stroke="grey" stroke-width="2" d="M397,-647.7C397,-639.98 397,-630.71 397,-622.11"/>
<polygon fill="grey" stroke="grey" stroke-width="2" points="400.5,-622.1 397,-612.1 393.5,-622.1 400.5,-622.1"/>
</g>
<!-- 7&#45;&gt;13 -->
<g id="edge20" class="edge">
<title>7&#45;&gt;13</title>
<path fill="none" stroke="grey" stroke-width="2" d="M423.39,-647.96C435.36,-638.79 448.48,-626.4 456,-612 478.26,-569.38 479.72,-512.01 478.23,-478.52"/>
<polygon fill="grey" stroke="grey" stroke-width="2" points="481.7,-477.91 477.64,-468.13 474.71,-478.31 481.7,-477.91"/>
</g>
<!-- 8 -->
<g id="node9" class="node">
<title>8</title>
<path fill="none" stroke="#a7d856" stroke-width="2" d="M434,-756C434,-756 360,-756 360,-756 354,-756 348,-750 348,-744 348,-744 348,-732 348,-732 348,-726 354,-720 360,-720 360,-720 434,-720 434,-720 440,-720 446,-726 446,-732 446,-732 446,-744 446,-744 446,-750 440,-756 434,-756"/>
<text text-anchor="middle" x="397" y="-735.5" font-family="sans" font-size="10.00">cellranger_count</text>
</g>
<!-- 8&#45;&gt;7 -->
<g id="edge15" class="edge">
<title>8&#45;&gt;7</title>
<path fill="none" stroke="grey" stroke-width="2" d="M397,-719.7C397,-711.98 397,-702.71 397,-694.11"/>
<polygon fill="grey" stroke="grey" stroke-width="2" points="400.5,-694.1 397,-684.1 393.5,-694.1 400.5,-694.1"/>
</g>
<!-- 9&#45;&gt;6 -->
<g id="edge14" class="edge">
<title>9&#45;&gt;6</title>
<path fill="none" stroke="grey" stroke-width="2" d="M387.36,-575.7C382.87,-567.64 377.44,-557.89 372.48,-548.98"/>
<polygon fill="grey" stroke="grey" stroke-width="2" points="375.45,-547.14 367.53,-540.1 369.34,-550.54 375.45,-547.14"/>
</g>
<!-- 10&#45;&gt;4 -->
<g id="edge10" class="edge">
<title>10&#45;&gt;4</title>
<path fill="none" stroke="grey" stroke-width="2" d="M318.67,-359.7C311.24,-351.3 302.18,-341.07 294.02,-331.86"/>
<polygon fill="grey" stroke="grey" stroke-width="2" points="296.4,-329.27 287.15,-324.1 291.16,-333.91 296.4,-329.27"/>
</g>
<!-- 11&#45;&gt;0 -->
<g id="edge2" class="edge">
<title>11&#45;&gt;0</title>
<path fill="none" stroke="grey" stroke-width="2" d="M209.54,-71.88C227.25,-62.55 249.35,-50.92 268.32,-40.94"/>
<polygon fill="grey" stroke="grey" stroke-width="2" points="270.12,-43.94 277.34,-36.19 266.86,-37.75 270.12,-43.94"/>
</g>
<!-- 12&#45;&gt;0 -->
<g id="edge6" class="edge">
<title>12&#45;&gt;0</title>
<path fill="none" stroke="grey" stroke-width="2" d="M281.39,-71.7C285.76,-63.64 291.06,-53.89 295.9,-44.98"/>
<polygon fill="grey" stroke="grey" stroke-width="2" points="299.02,-46.56 300.71,-36.1 292.87,-43.22 299.02,-46.56"/>
</g>
<!-- 13&#45;&gt;0 -->
<g id="edge4" class="edge">
<title>13&#45;&gt;0</title>
<path fill="none" stroke="grey" stroke-width="2" d="M476,-431.95C476,-405.29 476,-352.11 476,-307 476,-307 476,-307 476,-161 476,-120.55 483.6,-102.47 457,-72 433.02,-44.52 393.68,-31.28 361.73,-24.91"/>
<polygon fill="grey" stroke="grey" stroke-width="2" points="362.11,-21.42 351.64,-23.08 360.86,-28.31 362.11,-21.42"/>
</g>
<!-- 14&#45;&gt;0 -->
<g id="edge3" class="edge">
<title>14&#45;&gt;0</title>
<path fill="none" stroke="grey" stroke-width="2" d="M339.36,-71.7C334.87,-63.64 329.44,-53.89 324.48,-44.98"/>
<polygon fill="grey" stroke="grey" stroke-width="2" points="327.45,-43.14 319.53,-36.1 321.34,-46.54 327.45,-43.14"/>
</g>
<!-- 15&#45;&gt;0 -->
<g id="edge5" class="edge">
<title>15&#45;&gt;0</title>
<path fill="none" stroke="grey" stroke-width="2" d="M393.85,-71.88C379.47,-62.81 361.62,-51.55 346.09,-41.76"/>
<polygon fill="grey" stroke="grey" stroke-width="2" points="347.58,-38.56 337.26,-36.19 343.85,-44.48 347.58,-38.56"/>
</g>
</g>
</svg>
