<?xml version="1.0" encoding="UTF-8" standalone="no"?>
<!DOCTYPE svg PUBLIC "-//W3C//DTD SVG 1.1//EN"
 "http://www.w3.org/Graphics/SVG/1.1/DTD/svg11.dtd">
<!-- Generated by graphviz version 2.42.3 (20191010.1750)
 -->
<!-- Title: snakemake_dag Pages: 1 -->
<svg width="809pt" height="620pt"
 viewBox="0.00 0.00 809.00 620.00" xmlns="http://www.w3.org/2000/svg" xmlns:xlink="http://www.w3.org/1999/xlink">
<g id="graph0" class="graph" transform="scale(1 1) rotate(0) translate(4 616)">
<title>snakemake_dag</title>
<polygon fill="white" stroke="transparent" points="-4,4 -4,-616 805,-616 805,4 -4,4"/>
<!-- 0 -->
<g id="node1" class="node">
<title>0</title>
<path fill="none" stroke="#568ad8" stroke-width="2" d="M482.5,-36C482.5,-36 389.5,-36 389.5,-36 383.5,-36 377.5,-30 377.5,-24 377.5,-24 377.5,-12 377.5,-12 377.5,-6 383.5,0 389.5,0 389.5,0 482.5,0 482.5,0 488.5,0 494.5,-6 494.5,-12 494.5,-12 494.5,-24 494.5,-24 494.5,-30 488.5,-36 482.5,-36"/>
<text text-anchor="middle" x="436" y="-15.5" font-family="sans" font-size="10.00">all_avoidEmptyInput</text>
</g>
<!-- 1 -->
<g id="node2" class="node">
<title>1</title>
<path fill="none" stroke="#56c1d8" stroke-width="2" d="M495.5,-108C495.5,-108 376.5,-108 376.5,-108 370.5,-108 364.5,-102 364.5,-96 364.5,-96 364.5,-84 364.5,-84 364.5,-78 370.5,-72 376.5,-72 376.5,-72 495.5,-72 495.5,-72 501.5,-72 507.5,-78 507.5,-84 507.5,-84 507.5,-96 507.5,-96 507.5,-102 501.5,-108 495.5,-108"/>
<text text-anchor="middle" x="436" y="-87.5" font-family="sans" font-size="10.00">clinical_scTranscriptomics</text>
</g>
<!-- 1&#45;&gt;0 -->
<g id="edge1" class="edge">
<title>1&#45;&gt;0</title>
<path fill="none" stroke="grey" stroke-width="2" d="M436,-71.7C436,-63.98 436,-54.71 436,-46.11"/>
<polygon fill="grey" stroke="grey" stroke-width="2" points="439.5,-46.1 436,-36.1 432.5,-46.1 439.5,-46.1"/>
</g>
<!-- 2 -->
<g id="node3" class="node">
<title>2</title>
<path fill="none" stroke="#56d863" stroke-width="2" d="M86,-180C86,-180 12,-180 12,-180 6,-180 0,-174 0,-168 0,-168 0,-156 0,-156 0,-150 6,-144 12,-144 12,-144 86,-144 86,-144 92,-144 98,-150 98,-156 98,-156 98,-168 98,-168 98,-174 92,-180 86,-180"/>
<text text-anchor="middle" x="49" y="-159.5" font-family="sans" font-size="10.00">findminSetCover</text>
</g>
<!-- 2&#45;&gt;1 -->
<g id="edge6" class="edge">
<title>2&#45;&gt;1</title>
<path fill="none" stroke="grey" stroke-width="2" d="M98.01,-152.13C162.44,-140.48 276.53,-119.85 354.16,-105.8"/>
<polygon fill="grey" stroke="grey" stroke-width="2" points="355.17,-109.18 364.39,-103.95 353.92,-102.29 355.17,-109.18"/>
</g>
<!-- 3 -->
<g id="node4" class="node">
<title>3</title>
<path fill="none" stroke="#56d882" stroke-width="2" d="M302,-324C302,-324 116,-324 116,-324 110,-324 104,-318 104,-312 104,-312 104,-300 104,-300 104,-294 110,-288 116,-288 116,-288 302,-288 302,-288 308,-288 314,-294 314,-300 314,-300 314,-312 314,-312 314,-318 308,-324 302,-324"/>
<text text-anchor="middle" x="209" y="-303.5" font-family="sans" font-size="10.00">parseDgidbTrialsTable_for_minSetCover</text>
</g>
<!-- 3&#45;&gt;2 -->
<g id="edge10" class="edge">
<title>3&#45;&gt;2</title>
<path fill="none" stroke="grey" stroke-width="2" d="M103.66,-290.89C81.92,-282.94 61.54,-270.71 48,-252 35.24,-234.36 36.83,-209.18 40.84,-190.1"/>
<polygon fill="grey" stroke="grey" stroke-width="2" points="44.28,-190.75 43.24,-180.21 37.47,-189.1 44.28,-190.75"/>
</g>
<!-- 12 -->
<g id="node13" class="node">
<title>12</title>
<path fill="none" stroke="#b6d856" stroke-width="2" d="M195,-252C195,-252 69,-252 69,-252 63,-252 57,-246 57,-240 57,-240 57,-228 57,-228 57,-222 63,-216 69,-216 69,-216 195,-216 195,-216 201,-216 207,-222 207,-228 207,-228 207,-240 207,-240 207,-246 201,-252 195,-252"/>
<text text-anchor="middle" x="132" y="-231.5" font-family="sans" font-size="10.00">preprocessForUpSetR_venn</text>
</g>
<!-- 3&#45;&gt;12 -->
<g id="edge22" class="edge">
<title>3&#45;&gt;12</title>
<path fill="none" stroke="grey" stroke-width="2" d="M189.97,-287.7C180.46,-279.05 168.79,-268.45 158.43,-259.03"/>
<polygon fill="grey" stroke="grey" stroke-width="2" points="160.57,-256.24 150.81,-252.1 155.86,-261.42 160.57,-256.24"/>
</g>
<!-- 15 -->
<g id="node16" class="node">
<title>15</title>
<path fill="none" stroke="#56a9d8" stroke-width="2" d="M377,-252C377,-252 237,-252 237,-252 231,-252 225,-246 225,-240 225,-240 225,-228 225,-228 225,-222 231,-216 237,-216 237,-216 377,-216 377,-216 383,-216 389,-222 389,-228 389,-228 389,-240 389,-240 389,-246 383,-252 377,-252"/>
<text text-anchor="middle" x="307" y="-231.5" font-family="sans" font-size="10.00">get_full_druglist_to_subclones</text>
</g>
<!-- 3&#45;&gt;15 -->
<g id="edge24" class="edge">
<title>3&#45;&gt;15</title>
<path fill="none" stroke="grey" stroke-width="2" d="M232.97,-287.88C245.55,-278.89 261.13,-267.76 274.75,-258.03"/>
<polygon fill="grey" stroke="grey" stroke-width="2" points="276.83,-260.85 282.93,-252.19 272.76,-255.15 276.83,-260.85"/>
</g>
<!-- 4 -->
<g id="node5" class="node">
<title>4</title>
<path fill="none" stroke="#d8ac56" stroke-width="2" d="M312,-468C312,-468 230,-468 230,-468 224,-468 218,-462 218,-456 218,-456 218,-444 218,-444 218,-438 224,-432 230,-432 230,-432 312,-432 312,-432 318,-432 324,-438 324,-444 324,-444 324,-456 324,-456 324,-462 318,-468 312,-468"/>
<text text-anchor="middle" x="271" y="-447.5" font-family="sans" font-size="10.00">clinicalTrialsQuery</text>
</g>
<!-- 4&#45;&gt;3 -->
<g id="edge11" class="edge">
<title>4&#45;&gt;3</title>
<path fill="none" stroke="grey" stroke-width="2" d="M253.55,-431.83C244.62,-422.1 234.34,-409.26 228,-396 218.66,-376.46 213.87,-352.32 211.44,-334.12"/>
<polygon fill="grey" stroke="grey" stroke-width="2" points="214.92,-333.68 210.27,-324.16 207.96,-334.51 214.92,-333.68"/>
</g>
<!-- 8 -->
<g id="node9" class="node">
<title>8</title>
<path fill="none" stroke="#97d856" stroke-width="2" d="M493,-396C493,-396 341,-396 341,-396 335,-396 329,-390 329,-384 329,-384 329,-372 329,-372 329,-366 335,-360 341,-360 341,-360 493,-360 493,-360 499,-360 505,-366 505,-372 505,-372 505,-384 505,-384 505,-390 499,-396 493,-396"/>
<text text-anchor="middle" x="417" y="-375.5" font-family="sans" font-size="10.00">annotate_DE_clinicalInformation</text>
</g>
<!-- 4&#45;&gt;8 -->
<g id="edge17" class="edge">
<title>4&#45;&gt;8</title>
<path fill="none" stroke="grey" stroke-width="2" d="M306.72,-431.88C326.5,-422.39 351.27,-410.51 372.33,-400.42"/>
<polygon fill="grey" stroke="grey" stroke-width="2" points="373.9,-403.55 381.4,-396.07 370.87,-397.24 373.9,-403.55"/>
</g>
<!-- 10 -->
<g id="node11" class="node">
<title>10</title>
<path fill="none" stroke="#56d89a" stroke-width="2" d="M293,-396C293,-396 249,-396 249,-396 243,-396 237,-390 237,-384 237,-384 237,-372 237,-372 237,-366 243,-360 249,-360 249,-360 293,-360 293,-360 299,-360 305,-366 305,-372 305,-372 305,-384 305,-384 305,-390 299,-396 293,-396"/>
<text text-anchor="middle" x="271" y="-375.5" font-family="sans" font-size="10.00">filterDrugs</text>
</g>
<!-- 4&#45;&gt;10 -->
<g id="edge20" class="edge">
<title>4&#45;&gt;10</title>
<path fill="none" stroke="grey" stroke-width="2" d="M271,-431.7C271,-423.98 271,-414.71 271,-406.11"/>
<polygon fill="grey" stroke="grey" stroke-width="2" points="274.5,-406.1 271,-396.1 267.5,-406.1 274.5,-406.1"/>
</g>
<!-- 5 -->
<g id="node6" class="node">
<title>5</title>
<path fill="none" stroke="#56d8d0" stroke-width="2" d="M382.5,-540C382.5,-540 333.5,-540 333.5,-540 327.5,-540 321.5,-534 321.5,-528 321.5,-528 321.5,-516 321.5,-516 321.5,-510 327.5,-504 333.5,-504 333.5,-504 382.5,-504 382.5,-504 388.5,-504 394.5,-510 394.5,-516 394.5,-516 394.5,-528 394.5,-528 394.5,-534 388.5,-540 382.5,-540"/>
<text text-anchor="middle" x="358" y="-519.5" font-family="sans" font-size="10.00">dgidbQuery</text>
</g>
<!-- 5&#45;&gt;4 -->
<g id="edge14" class="edge">
<title>5&#45;&gt;4</title>
<path fill="none" stroke="grey" stroke-width="2" d="M336.49,-503.7C325.54,-494.88 312.05,-484.03 300.18,-474.47"/>
<polygon fill="grey" stroke="grey" stroke-width="2" points="302.24,-471.65 292.26,-468.1 297.86,-477.1 302.24,-471.65"/>
</g>
<!-- 5&#45;&gt;8 -->
<g id="edge16" class="edge">
<title>5&#45;&gt;8</title>
<path fill="none" stroke="grey" stroke-width="2" d="M365.12,-503.87C375.26,-479.46 393.97,-434.43 405.93,-405.64"/>
<polygon fill="grey" stroke="grey" stroke-width="2" points="409.25,-406.77 409.86,-396.19 402.79,-404.08 409.25,-406.77"/>
</g>
<!-- 6 -->
<g id="node7" class="node">
<title>6</title>
<path fill="none" stroke="#d8c356" stroke-width="2" d="M445,-612C445,-612 335,-612 335,-612 329,-612 323,-606 323,-600 323,-600 323,-588 323,-588 323,-582 329,-576 335,-576 335,-576 445,-576 445,-576 451,-576 457,-582 457,-588 457,-588 457,-600 457,-600 457,-606 451,-612 445,-612"/>
<text text-anchor="middle" x="390" y="-591.5" font-family="sans" font-size="10.00">parseAndFilter_DEgenes</text>
</g>
<!-- 6&#45;&gt;5 -->
<g id="edge15" class="edge">
<title>6&#45;&gt;5</title>
<path fill="none" stroke="grey" stroke-width="2" d="M382.09,-575.7C378.45,-567.73 374.05,-558.1 370.01,-549.26"/>
<polygon fill="grey" stroke="grey" stroke-width="2" points="373.16,-547.74 365.82,-540.1 366.79,-550.65 373.16,-547.74"/>
</g>
<!-- 6&#45;&gt;8 -->
<g id="edge18" class="edge">
<title>6&#45;&gt;8</title>
<path fill="none" stroke="grey" stroke-width="2" d="M394.89,-575.95C397.67,-565.63 400.99,-552.15 403,-540 410.69,-493.45 414.32,-438.58 415.9,-406.41"/>
<polygon fill="grey" stroke="grey" stroke-width="2" points="419.42,-406.18 416.38,-396.03 412.42,-405.86 419.42,-406.18"/>
</g>
<!-- 7 -->
<g id="node8" class="node">
<title>7</title>
<path fill="none" stroke="#61d856" stroke-width="2" d="M291.5,-540C291.5,-540 190.5,-540 190.5,-540 184.5,-540 178.5,-534 178.5,-528 178.5,-528 178.5,-516 178.5,-516 178.5,-510 184.5,-504 190.5,-504 190.5,-504 291.5,-504 291.5,-504 297.5,-504 303.5,-510 303.5,-516 303.5,-516 303.5,-528 303.5,-528 303.5,-534 297.5,-540 291.5,-540"/>
<text text-anchor="middle" x="241" y="-519.5" font-family="sans" font-size="10.00">downloadClinicalTrials</text>
</g>
<!-- 7&#45;&gt;4 -->
<g id="edge13" class="edge">
<title>7&#45;&gt;4</title>
<path fill="none" stroke="grey" stroke-width="2" d="M248.42,-503.7C251.79,-495.81 255.87,-486.3 259.62,-477.55"/>
<polygon fill="grey" stroke="grey" stroke-width="2" points="262.95,-478.67 263.67,-468.1 256.51,-475.92 262.95,-478.67"/>
</g>
<!-- 8&#45;&gt;1 -->
<g id="edge4" class="edge">
<title>8&#45;&gt;1</title>
<path fill="none" stroke="grey" stroke-width="2" d="M418.13,-359.97C421.3,-312.29 430.27,-177.18 434.16,-118.63"/>
<polygon fill="grey" stroke="grey" stroke-width="2" points="437.68,-118.52 434.85,-108.31 430.7,-118.05 437.68,-118.52"/>
</g>
<!-- 9 -->
<g id="node10" class="node">
<title>9</title>
<path fill="none" stroke="#56d8b9" stroke-width="2" d="M504.5,-252C504.5,-252 457.5,-252 457.5,-252 451.5,-252 445.5,-246 445.5,-240 445.5,-240 445.5,-228 445.5,-228 445.5,-222 451.5,-216 457.5,-216 457.5,-216 504.5,-216 504.5,-216 510.5,-216 516.5,-222 516.5,-228 516.5,-228 516.5,-240 516.5,-240 516.5,-246 510.5,-252 504.5,-252"/>
<text text-anchor="middle" x="481" y="-231.5" font-family="sans" font-size="10.00">queryCIVIC</text>
</g>
<!-- 8&#45;&gt;9 -->
<g id="edge19" class="edge">
<title>8&#45;&gt;9</title>
<path fill="none" stroke="grey" stroke-width="2" d="M424.72,-359.87C435.72,-335.46 456.02,-290.43 469,-261.64"/>
<polygon fill="grey" stroke="grey" stroke-width="2" points="472.33,-262.74 473.25,-252.19 465.95,-259.87 472.33,-262.74"/>
</g>
<!-- 9&#45;&gt;1 -->
<g id="edge3" class="edge">
<title>9&#45;&gt;1</title>
<path fill="none" stroke="grey" stroke-width="2" d="M475.57,-215.87C467.87,-191.56 453.69,-146.82 444.56,-118.01"/>
<polygon fill="grey" stroke="grey" stroke-width="2" points="447.8,-116.66 441.45,-108.19 441.13,-118.78 447.8,-116.66"/>
</g>
<!-- 16 -->
<g id="node17" class="node">
<title>16</title>
<path fill="none" stroke="#80d856" stroke-width="2" d="M587,-180C587,-180 495,-180 495,-180 489,-180 483,-174 483,-168 483,-168 483,-156 483,-156 483,-150 489,-144 495,-144 495,-144 587,-144 587,-144 593,-144 599,-150 599,-156 599,-156 599,-168 599,-168 599,-174 593,-180 587,-180"/>
<text text-anchor="middle" x="541" y="-159.5" font-family="sans" font-size="10.00">plot_drug_prediction</text>
</g>
<!-- 9&#45;&gt;16 -->
<g id="edge25" class="edge">
<title>9&#45;&gt;16</title>
<path fill="none" stroke="grey" stroke-width="2" d="M495.83,-215.7C503.02,-207.3 511.8,-197.07 519.69,-187.86"/>
<polygon fill="grey" stroke="grey" stroke-width="2" points="522.49,-189.97 526.34,-180.1 517.17,-185.42 522.49,-189.97"/>
</g>
<!-- 10&#45;&gt;3 -->
<g id="edge12" class="edge">
<title>10&#45;&gt;3</title>
<path fill="none" stroke="grey" stroke-width="2" d="M255.67,-359.7C248.24,-351.3 239.18,-341.07 231.02,-331.86"/>
<polygon fill="grey" stroke="grey" stroke-width="2" points="233.4,-329.27 224.15,-324.1 228.16,-333.91 233.4,-329.27"/>
</g>
<!-- 11 -->
<g id="node12" class="node">
<title>11</title>
<path fill="none" stroke="#ced856" stroke-width="2" d="M281.5,-180C281.5,-180 204.5,-180 204.5,-180 198.5,-180 192.5,-174 192.5,-168 192.5,-168 192.5,-156 192.5,-156 192.5,-150 198.5,-144 204.5,-144 204.5,-144 281.5,-144 281.5,-144 287.5,-144 293.5,-150 293.5,-156 293.5,-156 293.5,-168 293.5,-168 293.5,-174 287.5,-180 281.5,-180"/>
<text text-anchor="middle" x="243" y="-159.5" font-family="sans" font-size="10.00">plotUpSetR_venn</text>
</g>
<!-- 11&#45;&gt;1 -->
<g id="edge8" class="edge">
<title>11&#45;&gt;1</title>
<path fill="none" stroke="grey" stroke-width="2" d="M290.21,-143.88C317.07,-134.14 350.88,-121.87 379.18,-111.61"/>
<polygon fill="grey" stroke="grey" stroke-width="2" points="380.73,-114.77 388.94,-108.07 378.35,-108.19 380.73,-114.77"/>
</g>
<!-- 12&#45;&gt;11 -->
<g id="edge21" class="edge">
<title>12&#45;&gt;11</title>
<path fill="none" stroke="grey" stroke-width="2" d="M159.15,-215.88C173.53,-206.81 191.38,-195.55 206.91,-185.76"/>
<polygon fill="grey" stroke="grey" stroke-width="2" points="209.15,-188.48 215.74,-180.19 205.42,-182.56 209.15,-188.48"/>
</g>
<!-- 13 -->
<g id="node14" class="node">
<title>13</title>
<path fill="none" stroke="#d85656" stroke-width="2" d="M722,-252C722,-252 634,-252 634,-252 628,-252 622,-246 622,-240 622,-240 622,-228 622,-228 622,-222 628,-216 634,-216 634,-216 722,-216 722,-216 728,-216 734,-222 734,-228 734,-228 734,-240 734,-240 734,-246 728,-252 722,-252"/>
<text text-anchor="middle" x="678" y="-231.5" font-family="sans" font-size="10.00">geneSetEnrichment</text>
</g>
<!-- 13&#45;&gt;1 -->
<g id="edge2" class="edge">
<title>13&#45;&gt;1</title>
<path fill="none" stroke="grey" stroke-width="2" d="M668.73,-215.66C657.12,-195.57 635.39,-162.8 608,-144 581.15,-125.57 547.66,-113.36 517.38,-105.36"/>
<polygon fill="grey" stroke="grey" stroke-width="2" points="518.22,-101.97 507.67,-102.91 516.51,-108.75 518.22,-101.97"/>
</g>
<!-- 14 -->
<g id="node15" class="node">
<title>14</title>
<path fill="none" stroke="#d88d56" stroke-width="2" d="M789,-180C789,-180 667,-180 667,-180 661,-180 655,-174 655,-168 655,-168 655,-156 655,-156 655,-150 661,-144 667,-144 667,-144 789,-144 789,-144 795,-144 801,-150 801,-156 801,-156 801,-168 801,-168 801,-174 795,-180 789,-180"/>
<text text-anchor="middle" x="728" y="-159.5" font-family="sans" font-size="10.00">plot_gene_set_enrichment</text>
</g>
<!-- 13&#45;&gt;14 -->
<g id="edge23" class="edge">
<title>13&#45;&gt;14</title>
<path fill="none" stroke="grey" stroke-width="2" d="M690.36,-215.7C696.23,-207.47 703.37,-197.48 709.84,-188.42"/>
<polygon fill="grey" stroke="grey" stroke-width="2" points="712.82,-190.28 715.78,-180.1 707.12,-186.21 712.82,-190.28"/>
</g>
<!-- 14&#45;&gt;1 -->
<g id="edge9" class="edge">
<title>14&#45;&gt;1</title>
<path fill="none" stroke="grey" stroke-width="2" d="M656.94,-143.97C614.65,-133.83 560.84,-120.93 516.91,-110.4"/>
<polygon fill="grey" stroke="grey" stroke-width="2" points="517.66,-106.98 507.12,-108.05 516.03,-113.78 517.66,-106.98"/>
</g>
<!-- 15&#45;&gt;1 -->
<g id="edge7" class="edge">
<title>15&#45;&gt;1</title>
<path fill="none" stroke="grey" stroke-width="2" d="M322.56,-215.87C345.22,-190.92 387.44,-144.45 413.5,-115.77"/>
<polygon fill="grey" stroke="grey" stroke-width="2" points="416.25,-117.94 420.38,-108.19 411.07,-113.24 416.25,-117.94"/>
</g>
<!-- 16&#45;&gt;1 -->
<g id="edge5" class="edge">
<title>16&#45;&gt;1</title>
<path fill="none" stroke="grey" stroke-width="2" d="M515.31,-143.88C501.71,-134.81 484.83,-123.55 470.14,-113.76"/>
<polygon fill="grey" stroke="grey" stroke-width="2" points="472.05,-110.82 461.78,-108.19 468.16,-116.65 472.05,-110.82"/>
</g>
</g>
</svg>
